# Blender 3.4.1
# www.blender.org
mtllib schild.mtl
o Cube
v 0.082541 1.000000 -1.000000
v 0.082541 -1.000000 -1.000000
v 0.082541 1.000000 1.000000
v 0.082541 -1.000000 1.000000
v -0.082541 1.000000 -1.000000
v -0.082541 -1.000000 -1.000000
v -0.082541 1.000000 1.000000
v -0.082541 -1.000000 1.000000
vn -0.0000 1.0000 -0.0000
vn -0.0000 -0.0000 1.0000
vn -1.0000 -0.0000 -0.0000
vn -0.0000 -1.0000 -0.0000
vn 1.0000 -0.0000 -0.0000
vn -0.0000 -0.0000 -1.0000
vt 0.625000 0.500000
vt 0.502856 0.897852
vt 0.953761 0.342510
vt 0.375000 0.500000
vt 0.510177 0.271244
vt 0.703761 0.342510
vt 0.625000 0.750000
vt 0.941949 0.095541
vt 0.033102 0.894762
vt 0.691949 0.095541
vt 0.375000 0.750000
vt 0.040423 0.268154
vt 0.875000 0.500000
vt 0.945886 0.347994
vt 0.953761 0.092510
vt 0.695886 0.347994
vt 0.125000 0.500000
vt 0.703761 0.092510
vt 0.875000 0.750000
vt 0.941949 0.345541
vt 0.945886 0.097994
vt 0.691949 0.345541
vt 0.695886 0.097994
vt 0.125000 0.750000
s 0
usemtl Material
f 1/1/1 5/13/1 7/19/1 3/7/1
f 4/10/2 3/8/2 7/20/2 8/22/2
f 8/23/3 7/21/3 5/14/3 6/16/3
f 6/17/4 2/4/4 4/11/4 8/24/4
f 2/5/5 1/2/5 3/9/5 4/12/5
f 6/18/6 5/15/6 1/3/6 2/6/6
